<!-- JS Logo  source: js-vi-system/assets/logo/logo.svg  do not alter #FCD228 / #37342F -->
<svg xmlns="http://www.w3.org/2000/svg" viewBox="0 0 108 108" preserveAspectRatio="xMidYMid meet" style="width:100%;height:100%">
  <circle cx="54" cy="54" r="51.84" fill="#FCD228" stroke="#000000" stroke-width="3.24"/>
  <g fill="#37342F">
    <path fill-rule="evenodd" d="M 45.763 0.981 C 27.887 4.187, 13.665 14.723, 5.927 30.493 C -11.392 65.790, 14.481 106.880, 54.090 106.985 C 61.680 107.005, 74.001 103.711, 80.853 99.831 C 93.209 92.832, 103.726 78.474, 106.157 65.285 C 106.743 62.103, 107.623 58.719, 108.112 57.764 C 109.254 55.531, 109.274 47.712, 108.136 48.416 C 107.661 48.709, 106.999 46.598, 106.664 43.725 C 105.243 31.533, 93.432 14.801, 81.259 7.738 C 71.437 2.038, 56.122 -0.877, 45.763 0.981 M 42.773 6.555 C 34.268 8.617, 27.297 12.549, 20.392 19.179 C -7.384 45.851, 4.871 90.657, 42.631 100.492 C 61.601 105.433, 83.515 96.983, 94.449 80.511 C 107.269 61.196, 105.090 37.335, 88.973 20.550 C 76.641 7.708, 59.472 2.507, 42.773 6.555 M 60 32.070 C 56.350 33.557, 54.048 37.007, 54.022 41.027 C 53.992 45.852, 56.305 48.784, 60.779 49.592 C 65.891 50.514, 68 51.753, 68 53.835 C 68 57.937, 62.926 59.456, 60.768 56 C 60.009 54.785, 58.436 54, 56.759 54 C 53.172 54, 53.027 57.117, 56.455 60.545 C 58.400 62.491, 59.936 63, 63.866 63 C 68.173 63, 69.161 62.597, 71.411 59.923 C 76.183 54.252, 74.086 46.915, 67.275 45.456 C 62.252 44.380, 60 43.069, 60 41.221 C 60 37.069, 65.056 35.516, 67.232 39 C 68.730 41.399, 74 41.801, 74 39.516 C 74 37.025, 68.681 32.024, 65.500 31.523 C 63.850 31.263, 61.375 31.510, 60 32.070 M 43.780 44.668 C 43.572 54.057, 43.159 57.450, 42.184 57.774 C 41.459 58.014, 40.621 57.265, 40.317 56.105 C 39.918 54.579, 38.974 54, 36.883 54 C 33.338 54, 33.022 56.486, 36.073 60.365 C 38.717 63.727, 44.942 64.058, 48 61 C 49.802 59.198, 50 57.667, 50 45.500 L 50 32 47.030 32 L 44.060 32 43.780 44.668 M 24.250 70.662 C 19.659 72.515, 29.385 84.096, 39.278 88.558 C 44.436 90.884, 46.868 91.362, 53.500 91.356 C 64.547 91.344, 71.304 88.609, 79.078 81.003 C 85.137 75.074, 86.041 73.108, 83.627 71.105 C 81.788 69.579, 79.575 70.557, 77.937 73.617 C 76.377 76.533, 69.058 82.028, 64 84.080 C 62.075 84.861, 57.350 85.500, 53.500 85.500 C 44.366 85.500, 36.766 81.953, 30.839 74.924 C 28.555 72.216, 26.420 70.036, 26.093 70.079 C 25.767 70.122, 24.938 70.385, 24.250 70.662"/>
  </g>
</svg>
